inDegrees=no
num_controls=7
num_derivatives=13
num_iterations=110
num_multipliers=7
num_parameters=0
num_slacks=7
num_states=26
objective=5.863404
objective_accelerations=0.874311
objective_balance=0.055930
objective_effort=0.355698
objective_height=4.462906
objective_ligament=0.114559
solver_duration=1232.849267
status=Solve_Succeeded
success=true
DataType=double
version=3
OpenSimVersion=4.4-2022-07-23-0e9fedc
endheader
time	/jointset/ground_pelvis/pelvis_tilt/value	/jointset/ground_pelvis/pelvis_tx/value	/jointset/ground_pelvis/pelvis_ty/value	/jointset/hip_l/hip_flexion_l/value	/jointset/hip_l/hip_adduction_l/value	/jointset/hip_l/hip_rotation_l/value	/jointset/back/lumbar_extension/value	/jointset/patellofemoral_l/patellar_flexion_l/value	/jointset/knee_l/knee_flexion_l/value	/jointset/knee_l/knee_adduction_l/value	/jointset/knee_l/knee_rotation_l/value	/jointset/ankle_l/ankle_angle_l/value	/jointset/subtalar_l/subtalar_angle_l/value	/jointset/ground_pelvis/pelvis_tilt/speed	/jointset/ground_pelvis/pelvis_tx/speed	/jointset/ground_pelvis/pelvis_ty/speed	/jointset/hip_l/hip_flexion_l/speed	/jointset/hip_l/hip_adduction_l/speed	/jointset/hip_l/hip_rotation_l/speed	/jointset/back/lumbar_extension/speed	/jointset/patellofemoral_l/patellar_flexion_l/speed	/jointset/knee_l/knee_flexion_l/speed	/jointset/knee_l/knee_adduction_l/speed	/jointset/knee_l/knee_rotation_l/speed	/jointset/ankle_l/ankle_angle_l/speed	/jointset/subtalar_l/subtalar_angle_l/speed	/forceset/tau_hip_flexion_l	/forceset/tau_hip_adduction_l	/forceset/tau_hip_rotation_l	/forceset/tau_knee_flexion_l	/forceset/tau_ankle_angle_l	/forceset/tau_subtalar_angle_l	/forceset/tau_lumbar_extension	lambda_cid13_p0	lambda_cid13_p1	lambda_cid13_p2	lambda_cid13_p3	lambda_cid13_p4	lambda_cid13_p5	lambda_cid14_p0	/jointset/ground_pelvis/pelvis_tilt/accel	/jointset/ground_pelvis/pelvis_tx/accel	/jointset/ground_pelvis/pelvis_ty/accel	/jointset/hip_l/hip_flexion_l/accel	/jointset/hip_l/hip_adduction_l/accel	/jointset/hip_l/hip_rotation_l/accel	/jointset/back/lumbar_extension/accel	/jointset/patellofemoral_l/patellar_flexion_l/accel	/jointset/knee_l/knee_flexion_l/accel	/jointset/knee_l/knee_adduction_l/accel	/jointset/knee_l/knee_rotation_l/accel	/jointset/ankle_l/ankle_angle_l/accel	/jointset/subtalar_l/subtalar_angle_l/accel	gamma_cid13_p0	gamma_cid13_p1	gamma_cid13_p2	gamma_cid13_p3	gamma_cid13_p4	gamma_cid13_p5	gamma_cid14_p0
1.5	-0.4778595159032351	-0.0799063889104636	0.7347314356764696	1.3048669537101	-0.4311522484510749	-0.2089321877577841	-0.2347511655838949	0.8007821208527917	0.8007821208532284	-0.1298934397970793	-0.1474877646270826	0.03498340221068318	-0.06466587249913572	0.9512745489100739	0.3924262593915149	0.6391931830237709	-2.970284400073538	0.1980965505044674	-0.7117221099114264	0.2845398888130844	-2.000833867625404	-2.000833867625463	-0.1343282793620428	0.1365857983109182	-0.1394081386186644	0.1567985972405547	-0.2257066848227351	0.0259050446148478	-0.007019696488173321	-0.1829476177593599	0.08887303820495786	0.04946117125878241	0.2026213262979262	-3.942124419363986	-22.84364330825081	5.650883052929018	-12.34551534762975	-517.0988741479453	-53.78516964090588	-25.18006111264985	1.056190557849258	0.9818858372961572	-0.5729715930734418	-1.721011003445402	0.7295857279997681	-0.1848236404383741	1.712268083722434	-1.301135713966329	-1.301135713966351	0.1588981445763046	0.2763992484356113	-0.4403506535574509	0.5640586593981299	4.911341708135715e-07	3.730586016195423e-07	-2.940476515709722e-06	-1.236299702805136e-07	7.517951101410079e-07	-8.38112928905596e-07	4.911302407006429e-07
1.51	-0.4682940257326175	-0.0759334134303528	0.7410934393886561	1.275079900878912	-0.4291366734103445	-0.2160563680514276	-0.2318217133869769	0.7807110534232957	0.7807110534234538	-0.1312330670162147	-0.1461087062225357	0.03356722554031465	-0.06307184371943818	0.9616756518265372	0.4021161494748445	0.6330693849574827	-2.986715600044357	0.2049949533458769	-0.7130022909193436	0.3013386686595995	-2.013106990355047	-2.013106990354948	-0.1336026502612186	0.1392287675468482	-0.1437875315476276	0.1619974700346696	-0.2180495614893426	0.02574402885472316	-0.00663551413382686	-0.1799880349975838	0.08630775684163164	0.04837690580997843	0.1965830206431669	-4.460810875505331	-22.31287882501883	5.601616529480003	-11.73941941908109	-511.9808550126079	-54.05380173279022	-26.08620282362198	1.009947405404317	0.9546406699519577	-0.652664643187685	-1.54252429995266	0.6665793029838363	-0.0824512482469309	1.661900646408006	-1.149598164761361	-1.149598164737444	0.02862770259401766	0.2581850834837315	-0.4307980769542744	0.4964953115432328	4.507147867567426e-07	6.097882726448389e-07	-2.487420043059042e-06	-3.16396356280576e-08	7.355589698424538e-07	-7.279914844345785e-07	4.69937354326381e-07
1.52	-0.4586289490834786	-0.07186511903418717	0.747390088974223	1.245140866086787	-0.4270527919930645	-0.2231899173386961	-0.2287246298493336	0.7605254152438394	0.7605254152441039	-0.1325655914616292	-0.1447032302618716	0.03210844204776004	-0.06142608746737399	0.9711918446174661	0.4114900426024767	0.626122357699998	-3.00068079225716	0.2117578258182966	-0.7135959086185026	0.3180661569577863	-2.02374801757662	-2.023748017576362	-0.1329077247701156	0.1418693096752999	-0.1479295030521412	0.1671440917137753	-0.2103924381561229	0.02558301309421995	-0.006251331774165407	-0.1770284522362283	0.08374247547818577	0.04729264036071338	0.1905447149883929	-4.985491788480634	-21.78414252691333	5.5561904427188	-11.15090740190442	-506.9555875427943	-54.37640602842014	-26.99184130214247	0.879208532741827	0.9186864461565348	-0.7376174313128326	-1.227809451842111	0.7024796542013584	-0.04751097868671978	1.69800977405615	-0.9747166123519287	-0.9747166123519394	0.1527574226319637	0.275913826939908	-0.3928663686676431	0.5536084363961365	4.169847588551255e-07	8.40630791283936e-07	-2.091472284930716e-06	4.839897854794877e-08	7.296629119728774e-07	-6.359531717051002e-07	4.536626835856931e-07
1.53	-0.4488731697653614	-0.06770471567933359	0.7536132445804152	1.21507441227072	-0.4249020354434992	-0.2303272700933932	-0.2254608812842289	0.7402416438492664	0.7402416438495407	-0.1338906046832086	-0.1432723038446616	0.03060953819928233	-0.05972913349723596	0.9798050766305061	0.4205321136598953	0.6183772906486484	-3.012186290383452	0.2183626610278226	-0.7137711068026592	0.3346555092767249	-2.032713323938217	-2.032713323937608	-0.1320955007245756	0.1443076415997014	-0.1517957063544239	0.1722375931776886	-0.2025668162568431	0.02510639331278121	-0.005888912667324436	-0.1744413870722218	0.081723544660979	0.04597815737362919	0.1843397601791868	-5.347519143643802	-21.18726081794766	5.503735124244563	-10.63281916848852	-502.0254558151364	-54.54476658006448	-27.89708866558265	0.8285673936609442	0.8882205870637939	-0.8125247801128138	-1.048327521143374	0.6348457413936626	0.01340111798946302	1.635190940705083	-0.8135843786655839	-0.8135843786127763	0.04553103534826949	0.2261619975638819	-0.3751493144241259	0.485849602511828	3.903621718684208e-07	1.065218210512696e-06	-1.756202535982392e-06	1.157388897177275e-07	7.347531916840898e-07	-5.631281864510073e-07	4.426136169556777e-07
1.54	-0.4390360207554771	-0.06345564098359963	0.7597550348284809	1.184905621967806	-0.422686158484399	-0.2374631897587173	-0.2220320805999488	0.7198769900450511	0.7198769900451548	-0.135207480436635	-0.1418173202834572	0.02907364191709718	-0.05798151879223352	0.9874657829665511	0.4292243107785559	0.6098492860748087	-3.021148089634559	0.2247819077199542	-0.7133092907360165	0.351076580791358	-2.03992449952389	-2.039924499522928	-0.1312802310856706	0.1466807384190268	-0.1553279897933327	0.1772762386865171	-0.1947411943573846	0.02462977353132655	-0.005526493562195936	-0.1718543219081042	0.0797046138437386	0.0446636743865149	0.1781348053701863	-5.713973597187025	-20.59319122599209	5.45582677706861	-10.13488561984641	-497.1574450194134	-54.7604373873509	-28.80274919610475	0.6887033973425771	0.8487116584048972	-0.8942049358109397	-0.7190696768045944	0.665361950722558	0.079891871473181	1.6643536131944	-0.6238904571666888	-0.6238904571666638	0.153366541304767	0.2628668059245519	-0.3260823959929056	0.5426372453790117	3.676314368518881e-07	1.238532140681094e-06	-1.509665851114114e-06	1.689305297243401e-07	7.382481022973246e-07	-4.9384337815802e-07	4.329433215470491e-07
